REM DIRINDEX 1\2\5,1\2\6,1\2\7,1\2\8,1\3\9,1\3\10,1\3\11,1\4\12,1\4\13,1\4\14,1\4\15,1\4\16
REM DIRNAME folder01,folder02,folder03,folder04,folder05,folder06,folder07,folder08,folder09,folder10,folder11,folder12,folder13,folder14,folder15,folder16
TITLE ""
FILE "1200_2_sec02_0338_0353.mp3" MP3
  TRACK 01 AUDIO
    TITLE "0:"
    INDEX 01 00:00:00
  TRACK 02 AUDIO
    TITLE "10:cjc034_00694"
    INDEX 01 00:00:15
  TRACK 03 AUDIO
    TITLE "0:"
    INDEX 01 00:02:49
  TRACK 04 AUDIO
    TITLE "9:cjc034_00695"
    INDEX 01 00:02:53
  TRACK 05 AUDIO
    TITLE "0:"
    INDEX 01 00:03:64
  TRACK 06 AUDIO
    TITLE "10:cjc034_00696"
    INDEX 01 00:04:44
  TRACK 07 AUDIO
    TITLE "0:"
    INDEX 01 00:05:63
  TRACK 08 AUDIO
    TITLE "9:cjc034_00697"
    INDEX 01 00:05:67
  TRACK 09 AUDIO
    TITLE "0:"
    INDEX 01 00:07:07
  TRACK 10 AUDIO
    TITLE "10:cjc034_00698"
    INDEX 01 00:07:64
  TRACK 11 AUDIO
    TITLE "0:"
    INDEX 01 00:10:23
  TRACK 12 AUDIO
    TITLE "9:cjc034_00699"
    INDEX 01 00:10:29
  TRACK 13 AUDIO
    TITLE "0:"
    INDEX 01 00:11:31
  TRACK 14 AUDIO
    TITLE "10:cjc034_00700"
    INDEX 01 00:12:14
  TRACK 15 AUDIO
    TITLE "0:"
    INDEX 01 00:13:24
  TRACK 16 AUDIO
    TITLE "9:cjc034_00701"
    INDEX 01 00:13:28
  TRACK 17 AUDIO
    TITLE "0:"
    INDEX 01 00:14:29
  TRACK 18 AUDIO
    TITLE "10:cjc034_00702"
    INDEX 01 00:15:13
  TRACK 19 AUDIO
    TITLE "0:"
    INDEX 01 00:17:61
  TRACK 20 AUDIO
    TITLE "9:cjc034_00703"
    INDEX 01 00:17:65
  TRACK 21 AUDIO
    TITLE "0:"
    INDEX 01 00:18:74
  TRACK 22 AUDIO
    TITLE "10:cjc034_00704"
    INDEX 01 00:19:58
  TRACK 23 AUDIO
    TITLE "0:"
    INDEX 01 00:21:00
  TRACK 24 AUDIO
    TITLE "9:cjc034_00705"
    INDEX 01 00:21:06
  TRACK 25 AUDIO
    TITLE "0:"
    INDEX 01 00:22:15
  TRACK 26 AUDIO
    TITLE "10:cjc034_00706"
    INDEX 01 00:22:70
  TRACK 27 AUDIO
    TITLE "0:"
    INDEX 01 00:24:10
  TRACK 28 AUDIO
    TITLE "9:cjc034_00707"
    INDEX 01 00:24:14
  TRACK 29 AUDIO
    TITLE "0:"
    INDEX 01 00:25:21
  TRACK 30 AUDIO
    TITLE "10:cjc034_00708"
    INDEX 01 00:26:05
  TRACK 31 AUDIO
    TITLE "0:"
    INDEX 01 00:27:30
  TRACK 32 AUDIO
    TITLE "9:cjc034_00709"
    INDEX 01 00:27:36
  TRACK 33 AUDIO
    TITLE "0:"
    INDEX 01 00:28:45
  TRACK 34 AUDIO
    TITLE "10:cjc034_00710"
    INDEX 01 00:29:23
  TRACK 35 AUDIO
    TITLE "0:"
    INDEX 01 00:30:40
  TRACK 36 AUDIO
    TITLE "9:cjc034_00711"
    INDEX 01 00:30:46
  TRACK 37 AUDIO
    TITLE "0:"
    INDEX 01 00:31:45
  TRACK 38 AUDIO
    TITLE "10:cjc034_00712"
    INDEX 01 00:32:27
  TRACK 39 AUDIO
    TITLE "0:"
    INDEX 01 00:33:32
  TRACK 40 AUDIO
    TITLE "9:cjc034_00713"
    INDEX 01 00:33:40
  TRACK 41 AUDIO
    TITLE "0:"
    INDEX 01 00:34:38
  TRACK 42 AUDIO
    TITLE "10:cjc034_00714"
    INDEX 01 00:35:29
  TRACK 43 AUDIO
    TITLE "0:"
    INDEX 01 00:37:54
  TRACK 44 AUDIO
    TITLE "9:cjc034_00715"
    INDEX 01 00:37:59
  TRACK 45 AUDIO
    TITLE "0:"
    INDEX 01 00:39:03
  TRACK 46 AUDIO
    TITLE "10:cjc034_00716"
    INDEX 01 00:39:58
  TRACK 47 AUDIO
    TITLE "0:"
    INDEX 01 00:42:10
  TRACK 48 AUDIO
    TITLE "9:cjc034_00717"
    INDEX 01 00:42:12
  TRACK 49 AUDIO
    TITLE "0:"
    INDEX 01 00:43:17
  TRACK 50 AUDIO
    TITLE "10:cjc034_00718"
    INDEX 01 00:43:72
  TRACK 51 AUDIO
    TITLE "0:"
    INDEX 01 00:46:31
  TRACK 52 AUDIO
    TITLE "9:cjc034_00719"
    INDEX 01 00:46:37
  TRACK 53 AUDIO
    TITLE "0:"
    INDEX 01 00:47:42
  TRACK 54 AUDIO
    TITLE "10:cjc034_00720"
    INDEX 01 00:48:24
  TRACK 55 AUDIO
    TITLE "0:"
    INDEX 01 00:50:48
  TRACK 56 AUDIO
    TITLE "9:cjc034_00721"
    INDEX 01 00:50:52
  TRACK 57 AUDIO
    TITLE "0:"
    INDEX 01 00:52:00
  TRACK 58 AUDIO
    TITLE "10:cjc034_00722"
    INDEX 01 00:52:57
  TRACK 59 AUDIO
    TITLE "0:"
    INDEX 01 00:55:16
  TRACK 60 AUDIO
    TITLE "9:cjc034_00723"
    INDEX 01 00:55:22
  TRACK 61 AUDIO
    TITLE "0:"
    INDEX 01 00:56:37
  TRACK 62 AUDIO
    TITLE "10:cjc034_00724"
    INDEX 01 00:57:19
  TRACK 63 AUDIO
    TITLE "0:"
    INDEX 01 00:58:58
  TRACK 64 AUDIO
    TITLE "9:cjc034_00725"
    INDEX 01 00:58:62
  TRACK 65 AUDIO
    TITLE "0:"
    INDEX 01 01:00:04
